<svg xmlns="http://www.w3.org/2000/svg" width="85" height="86" viewBox="0 0 85 86" fill="none"><path d="M43.4947 0.862061H41.5686V5.67804H43.4947V0.862061Z" fill="#014E4E"></path><path d="M43.4947 0.862061H41.5686V5.67804H43.4947V0.862061Z" fill="#014E4E"></path><path d="M43.4947 80.321H41.5686V85.137H43.4947V80.321Z" fill="#014E4E"></path><path d="M5.20953 42.0361H0.394287V43.9622H5.20953V42.0361Z" fill="#014E4E"></path><path d="M5.20953 42.0361H0.394287V43.9622H5.20953V42.0361Z" fill="#014E4E"></path><path d="M84.6685 42.0361H79.8533V43.9622H84.6685V42.0361Z" fill="#014E4E"></path><path d="M13.4213 12.541L12.0593 13.903L15.4647 17.3083L16.8267 15.9464L13.4213 12.541Z" fill="#014E4E"></path><path d="M13.4213 12.541L12.0593 13.903L15.4647 17.3083L16.8267 15.9464L13.4213 12.541Z" fill="#014E4E"></path><path d="M69.6068 68.7312L68.2449 70.0931L71.6503 73.4985L73.0122 72.1366L69.6068 68.7312Z" fill="#014E4E"></path><path d="M15.4559 68.7074L12.051 72.1133L13.4132 73.475L16.8181 70.0692L15.4559 68.7074Z" fill="#014E4E"></path><path d="M15.4559 68.7074L12.051 72.1133L13.4132 73.475L16.8181 70.0692L15.4559 68.7074Z" fill="#014E4E"></path><path d="M71.6415 12.522L68.2366 15.9279L69.5987 17.2896L73.0036 13.8838L71.6415 12.522Z" fill="#014E4E"></path><path d="M33.8708 1.74659L31.9954 2.18555L33.0929 6.87486L34.9684 6.43591L33.8708 1.74659Z" fill="#014E4E"></path><path d="M33.8708 1.74659L31.9954 2.18555L33.0929 6.87486L34.9684 6.43591L33.8708 1.74659Z" fill="#014E4E"></path><path d="M51.9836 79.1144L50.1082 79.5533L51.2057 84.2427L53.0812 83.8037L51.9836 79.1144Z" fill="#014E4E"></path><path d="M5.96009 50.5663L1.27124 51.6648L1.71058 53.54L6.39943 52.4415L5.96009 50.5663Z" fill="#014E4E"></path><path d="M5.96009 50.5663L1.27124 51.6648L1.71058 53.54L6.39943 52.4415L5.96009 50.5663Z" fill="#014E4E"></path><path d="M83.3268 32.444L78.6379 33.5425L79.0773 35.4177L83.7661 34.3192L83.3268 32.444Z" fill="#014E4E"></path><path d="M7.23999 19.9547L6.22437 21.5913L10.3165 24.1308L11.3321 22.4942L7.23999 19.9547Z" fill="#014E4E"></path><path d="M7.23999 19.9547L6.22437 21.5913L10.3165 24.1308L11.3321 22.4942L7.23999 19.9547Z" fill="#014E4E"></path><path d="M74.7532 61.8541L73.7375 63.4907L77.8297 66.0302L78.8453 64.3936L74.7532 61.8541Z" fill="#014E4E"></path><path d="M22.0207 74.1905L19.4807 78.2821L21.1171 79.2979L23.6571 75.2063L22.0207 74.1905Z" fill="#014E4E"></path><path d="M22.0207 74.1905L19.4807 78.2821L21.1171 79.2979L23.6571 75.2063L22.0207 74.1905Z" fill="#014E4E"></path><path d="M63.9269 6.68924L61.387 10.7809L63.0234 11.7967L65.5633 7.70506L63.9269 6.68924Z" fill="#014E4E"></path><path d="M27.8938 3.46925L26.1028 4.18005L27.8794 8.65652L29.6704 7.94571L27.8938 3.46925Z" fill="#014E4E"></path><path d="M27.8938 3.46925L26.1028 4.18005L27.8794 8.65652L29.6704 7.94571L27.8938 3.46925Z" fill="#014E4E"></path><path d="M57.2068 77.3251L55.4158 78.0359L57.1924 82.5123L58.9834 81.8015L57.2068 77.3251Z" fill="#014E4E"></path><path d="M7.49673 55.8746L3.02026 57.6512L3.7308 59.4416L8.20726 57.6649L7.49673 55.8746Z" fill="#014E4E"></path><path d="M7.49673 55.8746L3.02026 57.6512L3.7308 59.4416L8.20726 57.6649L7.49673 55.8746Z" fill="#014E4E"></path><path d="M81.3541 26.5671L76.8777 28.3438L77.5882 30.1341L82.0647 28.3575L81.3541 26.5671Z" fill="#014E4E"></path><path d="M4.22371 25.3968L3.46021 27.1652L7.88108 29.0739L8.64459 27.3056L4.22371 25.3968Z" fill="#014E4E"></path><path d="M4.22371 25.3968L3.46021 27.1652L7.88108 29.0739L8.64459 27.3056L4.22371 25.3968Z" fill="#014E4E"></path><path d="M77.17 56.8893L76.4065 58.6577L80.8274 60.5665L81.5909 58.7981L77.17 56.8893Z" fill="#014E4E"></path><path d="M26.847 76.887L24.9387 81.3079L26.7071 82.0712L28.6154 77.6503L26.847 76.887Z" fill="#014E4E"></path><path d="M26.847 76.887L24.9387 81.3079L26.7071 82.0712L28.6154 77.6503L26.847 76.887Z" fill="#014E4E"></path><path d="M58.3473 3.93843L56.4387 8.35999L58.2077 9.12359L60.1163 4.70203L58.3473 3.93843Z" fill="#014E4E"></path><path d="M19.2749 7.85601L17.6936 8.95581L20.4435 12.9097L22.0249 11.8099L19.2749 7.85601Z" fill="#014E4E"></path><path d="M19.2749 7.85601L17.6936 8.95581L20.4435 12.9097L22.0249 11.8099L19.2749 7.85601Z" fill="#014E4E"></path><path d="M64.6514 73.0888L63.0701 74.1886L65.82 78.1425L67.4013 77.0427L64.6514 73.0888Z" fill="#014E4E"></path><path d="M11.3472 63.5035L7.3938 66.2539L8.4938 67.835L12.4472 65.0846L11.3472 63.5035Z" fill="#014E4E"></path><path d="M11.3472 63.5035L7.3938 66.2539L8.4938 67.835L12.4472 65.0846L11.3472 63.5035Z" fill="#014E4E"></path><path d="M76.5576 18.1543L72.6047 20.9038L73.7045 22.4849L77.6574 19.7354L76.5576 18.1543Z" fill="#014E4E"></path><path d="M1.23512 34.5961L0.894775 36.4919L5.63514 37.3429L5.97548 35.4471L1.23512 34.5961Z" fill="#014E4E"></path><path d="M1.23512 34.5961L0.894775 36.4919L5.63514 37.3429L5.97548 35.4471L1.23512 34.5961Z" fill="#014E4E"></path><path d="M79.4387 48.6313L79.0984 50.5272L83.8388 51.3782L84.1791 49.4823L79.4387 48.6313Z" fill="#014E4E"></path><path d="M34.9767 79.5456L34.1262 84.286L36.0221 84.6262L36.8726 79.8858L34.9767 79.5456Z" fill="#014E4E"></path><path d="M34.9767 79.5456L34.1262 84.286L36.0221 84.6262L36.8726 79.8858L34.9767 79.5456Z" fill="#014E4E"></path><path d="M49.0256 1.34556L48.175 6.08594L50.0709 6.42609L50.9214 1.68571L49.0256 1.34556Z" fill="#014E4E"></path></svg>