<svg xmlns="http://www.w3.org/2000/svg" width="152" height="51" viewBox="0 0 152 51" fill="none"><circle cx="25.3213" cy="25.0801" r="25" fill="#F9D67B"></circle><path d="M14.8613 19.9043C12.9423 20.2395 11.4751 21.9205 11.4751 23.9318V28.0128H20.9196C20.7107 26.3513 20.084 24.7432 18.9909 23.4508C18.6994 23.1059 18.3788 22.7852 18.0289 22.4986L14.8613 19.9043Z" fill="#014E4E"></path><path d="M29.4075 16.1675V14.1659C29.4075 11.9214 27.5662 10.0801 25.3217 10.0801H21.2358V14.9432C21.7071 14.7441 22.2221 14.6323 22.7662 14.6323C24.8407 14.6323 26.5314 16.2452 26.6626 18.2857C27.5322 17.5279 28.4504 16.8185 29.4075 16.1675Z" fill="#014E4E"></path><path d="M25.3211 37.7777H29.4069V28.0125H35.0863C37.3308 28.0125 39.1673 26.1761 39.1673 23.9315V19.8457H31.1754C30.16 21.1623 29.4021 22.6781 28.8823 24.4902C28.0369 27.4441 27.9494 30.602 26.8175 33.4732C26.1519 35.1493 25.1948 36.4902 24.0288 37.5688C24.4321 37.7048 24.8693 37.7777 25.3211 37.7777Z" fill="#1E1E1E"></path><path d="M34.387 15.0596C20.8323 23.8725 33.0898 35.9211 15.2744 40.0798C23.8833 36.0377 24.2671 25.7333 18.9424 21.3802L24.1554 23.0078C24.1554 23.0078 27.8768 17.8677 34.387 15.0596Z" fill="#014E4E"></path><path d="M22.7659 16.0801C24.1214 16.0801 25.2242 17.178 25.2242 18.5384C25.2242 19.8938 24.1213 20.9918 22.7659 20.9918C21.4104 20.9918 20.3076 19.8938 20.3076 18.5384C20.3076 17.178 21.4105 16.0801 22.7659 16.0801Z" fill="#1E1E1E"></path><path d="M80.3503 13.4051V32.5801H76.9183V23.2201L78.4653 24.3901H67.8833L69.4303 23.2461V32.5801H65.9983V13.4051H69.4303V22.8561L67.8833 21.6601H78.4653L76.9183 22.8431V13.4051H80.3503ZM85.0086 26.7821V24.3511H94.6676L94.2776 25.0011C94.2776 24.9491 94.2776 24.8927 94.2776 24.8321C94.2776 24.7627 94.2776 24.7064 94.2776 24.6631C94.2776 24.0651 94.1432 23.5061 93.8746 22.9861C93.6059 22.4574 93.1986 22.0327 92.6526 21.7121C92.1066 21.3827 91.4132 21.2181 90.5726 21.2181C89.7406 21.2181 89.0169 21.3957 88.4016 21.7511C87.7949 22.0977 87.3226 22.6004 86.9846 23.2591C86.6552 23.9177 86.4906 24.7064 86.4906 25.6251C86.4906 26.5697 86.6509 27.3844 86.9716 28.0691C87.2922 28.7451 87.7602 29.2651 88.3756 29.6291C88.9996 29.9844 89.7579 30.1621 90.6506 30.1621C91.2572 30.1621 91.7816 30.1057 92.2236 29.9931C92.6656 29.8804 93.0252 29.7287 93.3026 29.5381C93.5886 29.3387 93.8009 29.1264 93.9396 28.9011C94.0869 28.6757 94.1736 28.4504 94.1996 28.2251H97.6056C97.5536 28.8057 97.3586 29.3734 97.0206 29.9281C96.6912 30.4741 96.2276 30.9724 95.6296 31.4231C95.0316 31.8651 94.3036 32.2204 93.4456 32.4891C92.5962 32.7491 91.6256 32.8791 90.5336 32.8791C89.0516 32.8791 87.7559 32.5757 86.6466 31.9691C85.5372 31.3624 84.6706 30.5174 84.0466 29.4341C83.4312 28.3507 83.1236 27.1114 83.1236 25.7161C83.1236 24.2861 83.4356 23.0337 84.0596 21.9591C84.6922 20.8844 85.5676 20.0481 86.6856 19.4501C87.8036 18.8434 89.0862 18.5401 90.5336 18.5401C92.0242 18.5401 93.3112 18.8434 94.3946 19.4501C95.4866 20.0567 96.3272 20.9017 96.9166 21.9851C97.5059 23.0597 97.8006 24.3121 97.8006 25.7421C97.8006 25.9241 97.7962 26.1191 97.7876 26.3271C97.7789 26.5351 97.7659 26.6867 97.7486 26.7821H85.0086ZM105.351 32.8661C104.32 32.8661 103.414 32.7057 102.634 32.3851C101.854 32.0557 101.243 31.5834 100.801 30.9681C100.359 30.3527 100.138 29.6117 100.138 28.7451C100.138 27.8004 100.394 27.0247 100.905 26.4181C101.425 25.8027 102.123 25.3304 102.998 25.0011C103.874 24.6631 104.844 24.4464 105.91 24.3511C107.488 24.1951 108.588 24.0477 109.212 23.9091C109.845 23.7617 110.161 23.5277 110.161 23.2071C110.161 23.1984 110.161 23.1941 110.161 23.1941C110.161 23.1854 110.161 23.1811 110.161 23.1811C110.161 22.5744 109.888 22.1064 109.342 21.7771C108.796 21.4477 108.025 21.2831 107.028 21.2831C105.98 21.2831 105.174 21.4694 104.61 21.8421C104.056 22.2061 103.778 22.7867 103.778 23.5841H100.398C100.398 22.5007 100.684 21.5864 101.256 20.8411C101.837 20.0871 102.63 19.5151 103.635 19.1251C104.641 18.7351 105.78 18.5401 107.054 18.5401C108.242 18.5401 109.329 18.7177 110.317 19.0731C111.305 19.4284 112.098 19.9657 112.696 20.6851C113.294 21.4044 113.593 22.3014 113.593 23.3761C113.593 23.5581 113.593 23.7401 113.593 23.9221C113.593 24.1041 113.593 24.2861 113.593 24.4681V29.6681C113.593 29.9974 113.602 30.3224 113.619 30.6431C113.645 30.9551 113.693 31.2367 113.762 31.4881C113.849 31.7654 113.953 31.9994 114.074 32.1901C114.196 32.3807 114.291 32.5107 114.36 32.5801H110.98C110.92 32.5194 110.833 32.4024 110.72 32.2291C110.616 32.0471 110.521 31.8391 110.434 31.6051C110.348 31.3451 110.283 31.0677 110.239 30.7731C110.196 30.4697 110.174 30.1361 110.174 29.7721L110.85 30.2401C110.59 30.7687 110.192 31.2324 109.654 31.6311C109.126 32.0211 108.493 32.3244 107.756 32.5411C107.02 32.7577 106.218 32.8661 105.351 32.8661ZM106.183 30.1751C106.894 30.1751 107.553 30.0537 108.159 29.8111C108.766 29.5684 109.256 29.1957 109.628 28.6931C110.001 28.1817 110.187 27.5274 110.187 26.7301V24.8841L111.019 25.8201C110.465 26.0281 109.797 26.2014 109.017 26.3401C108.237 26.4701 107.449 26.5741 106.651 26.6521C105.629 26.7474 104.857 26.9251 104.337 27.1851C103.826 27.4451 103.57 27.8697 103.57 28.4591C103.57 29.0311 103.787 29.4601 104.22 29.7461C104.654 30.0321 105.308 30.1751 106.183 30.1751ZM120.33 12.2611V32.5801H116.963V12.2611H120.33ZM123.761 32.5801V18.7741H127.141V32.5801H123.761ZM125.464 16.2261C124.91 16.2261 124.424 16.0787 124.008 15.7841C123.601 15.4807 123.397 15.0604 123.397 14.5231C123.397 13.9944 123.601 13.5827 124.008 13.2881C124.424 12.9934 124.91 12.8461 125.464 12.8461C126.01 12.8461 126.487 12.9934 126.894 13.2881C127.302 13.5827 127.505 13.9944 127.505 14.5231C127.505 15.0604 127.302 15.4807 126.894 15.7841C126.487 16.0787 126.01 16.2261 125.464 16.2261ZM135.079 25.0531L135.053 26.6131L129.424 18.7741H133.168L137.406 24.9231L135.352 24.9101L139.512 18.7741H143.178L137.783 26.1711L137.692 24.7411L143.256 32.5801H139.512L135.209 26.4441L137.523 26.2361L132.882 32.5801H129.216L135.079 25.0531Z" fill="white"></path><path d="M147.383 32.9441C146.846 32.9441 146.391 32.7577 146.018 32.3851C145.645 32.0124 145.459 31.5574 145.459 31.0201C145.459 30.4914 145.645 30.0407 146.018 29.6681C146.391 29.2867 146.846 29.0961 147.383 29.0961C147.912 29.0961 148.362 29.2867 148.735 29.6681C149.116 30.0407 149.307 30.4914 149.307 31.0201C149.307 31.5574 149.116 32.0124 148.735 32.3851C148.362 32.7577 147.912 32.9441 147.383 32.9441Z" fill="#F9D67B"></path></svg>